<svg width="512" height="512" viewBox="0 0 512 512" fill="none" xmlns="http://www.w3.org/2000/svg">
  <defs>
    <radialGradient id="bgGrad" cx="50%" cy="50%" r="50%">
      <stop offset="0%" stop-color="#141824"/>
      <stop offset="70%" stop-color="#090b10"/>
      <stop offset="100%" stop-color="#040507"/>
    </radialGradient>

    <!-- 3D Glossy Cherry Red Outer Shell Gradient -->
    <linearGradient id="glossyRedShell" x1="120" y1="40" x2="440" y2="380" gradientUnits="userSpaceOnUse">
      <stop offset="0%" stop-color="#ff4b4b" />
      <stop offset="18%" stop-color="#e60000" />
      <stop offset="55%" stop-color="#b30000" />
      <stop offset="85%" stop-color="#7a0000" />
      <stop offset="100%" stop-color="#400000" />
    </linearGradient>

    <!-- Top Rim Specular Red Highlight -->
    <linearGradient id="topRedHighlight" x1="180" y1="20" x2="460" y2="220" gradientUnits="userSpaceOnUse">
      <stop offset="0%" stop-color="#ffffff" stop-opacity="0.9" />
      <stop offset="25%" stop-color="#ff9999" stop-opacity="0.6" />
      <stop offset="60%" stop-color="#ff1a1a" stop-opacity="0" />
    </linearGradient>

    <!-- Piano Black Aerodynamic Wing Gradient -->
    <linearGradient id="pianoBlackWing" x1="60" y1="100" x2="300" y2="480" gradientUnits="userSpaceOnUse">
      <stop offset="0%" stop-color="#2c303b" />
      <stop offset="25%" stop-color="#15171d" />
      <stop offset="65%" stop-color="#08090d" />
      <stop offset="100%" stop-color="#010203" />
    </linearGradient>

    <!-- Glossy Black Specular Curved Reflection -->
    <linearGradient id="blackSpecGlaze" x1="50" y1="160" x2="200" y2="440" gradientUnits="userSpaceOnUse">
      <stop offset="0%" stop-color="#ffffff" stop-opacity="0.45" />
      <stop offset="35%" stop-color="#94a3b8" stop-opacity="0.2" />
      <stop offset="80%" stop-color="#000000" stop-opacity="0" />
    </linearGradient>

    <!-- Chrome Metallic Trim Gradient -->
    <linearGradient id="chromeTrimGrad" x1="120" y1="120" x2="360" y2="440" gradientUnits="userSpaceOnUse">
      <stop offset="0%" stop-color="#ffffff" />
      <stop offset="25%" stop-color="#e2e8f0" />
      <stop offset="50%" stop-color="#64748b" />
      <stop offset="75%" stop-color="#f8fafc" />
      <stop offset="100%" stop-color="#334155" />
    </linearGradient>

    <!-- Inner Red Frame Bezel Gradient -->
    <linearGradient id="innerRedBezel" x1="160" y1="120" x2="360" y2="380" gradientUnits="userSpaceOnUse">
      <stop offset="0%" stop-color="#ff2a2a" />
      <stop offset="50%" stop-color="#cc0000" />
      <stop offset="100%" stop-color="#800000" />
    </linearGradient>

    <!-- Center White Play Triangle Gradient (High Gloss Pearl White) -->
    <linearGradient id="pearlWhitePlay" x1="180" y1="140" x2="330" y2="340" gradientUnits="userSpaceOnUse">
      <stop offset="0%" stop-color="#ffffff" />
      <stop offset="40%" stop-color="#ffffff" />
      <stop offset="75%" stop-color="#e2e8f0" />
      <stop offset="100%" stop-color="#cbd5e1" />
    </linearGradient>

    <!-- Glass Sheen on Play Triangle -->
    <linearGradient id="playGlassSheen" x1="180" y1="140" x2="280" y2="270" gradientUnits="userSpaceOnUse">
      <stop offset="0%" stop-color="#ffffff" stop-opacity="0.95" />
      <stop offset="50%" stop-color="#ffffff" stop-opacity="0.3" />
      <stop offset="100%" stop-color="#ffffff" stop-opacity="0" />
    </linearGradient>

    <!-- Drop Shadow Filter for realism -->
    <filter id="shadow3D" x="-15%" y="-15%" width="130%" height="130%">
      <feDropShadow dx="0" dy="12" stdDeviation="16" flood-color="#000000" flood-opacity="0.8" />
    </filter>
  </defs>

  <!-- Dark Background Canvas to fill entire square -->
  <rect width="512" height="512" rx="100" fill="url(#bgGrad)" />

  <!-- Logo Group: Scaled and centered with safe-area padding so NO edges are cut off -->
  <!-- Center is 256, 256. Logo is 512x512 with center ~260, 250. Scale 0.70 -->
  <g transform="translate(256, 256) scale(0.68) translate(-260, -252)" filter="url(#shadow3D)">
    <!-- 1. Outer Red Top Shell -->
    <path
      d="M 180 28
         C 270 12, 400 90, 465 210
         C 500 275, 480 340, 410 385
         C 350 425, 270 475, 175 480
         C 120 482, 65 440, 48 375
         C 32 315, 38 220, 75 140
         C 105 80, 140 34, 180 28 Z"
      fill="url(#glossyRedShell)"
    />

    <!-- Outer Red Shell Specular Highlights -->
    <path
      d="M 185 36
         C 265 22, 385 96, 448 208
         C 475 258, 465 310, 420 350
         C 375 390, 310 435, 220 455
         C 310 405, 395 345, 425 285
         C 458 218, 410 120, 305 70
         C 255 45, 215 40, 185 36 Z"
      fill="url(#topRedHighlight)"
    />

    <!-- 2. Glossy Piano Black Left Body Shell -->
    <path
      d="M 180 34
         C 135 42, 95 90, 68 152
         C 35 225, 30 310, 48 370
         C 60 412, 95 450, 145 465
         C 195 480, 260 460, 320 430
         C 230 460, 150 445, 105 400
         C 65 355, 60 270, 85 200
         C 108 140, 145 80, 180 34 Z"
      fill="url(#pianoBlackWing)"
    />

    <!-- Specular Highlight on Black Wing Edge -->
    <path
      d="M 170 48
         C 130 65, 95 110, 75 168
         C 52 230, 48 305, 62 360
         C 72 398, 100 432, 140 448
         C 105 425, 80 385, 72 340
         C 60 280, 65 210, 90 155
         C 112 108, 142 68, 170 48 Z"
      fill="url(#blackSpecGlaze)"
    />

    <!-- 3. Aerodynamic Silver/Chrome Transition Ridge -->
    <path
      d="M 195 75
         C 155 115, 120 180, 108 250
         C 95 320, 115 385, 165 425
         C 215 465, 290 440, 360 395
         C 400 370, 428 325, 420 280
         C 410 235, 365 190, 320 150
         C 275 110, 235 85, 195 75 Z"
      fill="#0f1218"
      stroke="url(#chromeTrimGrad)"
      stroke-width="6"
    />

    <!-- Chrome Bottom Reflection Line -->
    <path
      d="M 112 260
         C 102 320, 120 375, 165 415
         C 210 455, 280 435, 345 395"
      stroke="#ffffff"
      stroke-width="3.5"
      stroke-linecap="round"
      fill="none"
      opacity="0.85"
    />

    <!-- 4. Inner Recessed Triangular Core Casing -->
    <path
      d="M 172 135
         L 360 240
         C 382 252, 382 268, 360 280
         L 172 385
         C 150 397, 130 385, 130 360
         L 130 160
         C 130 135, 150 123, 172 135 Z"
      fill="#06070a"
      stroke="url(#innerRedBezel)"
      stroke-width="12"
      stroke-linejoin="round"
    />

    <!-- Glowing Neon Red Bezel Outline -->
    <path
      d="M 180 148
         L 348 245
         C 365 255, 365 265, 348 275
         L 180 372
         C 162 382, 146 372, 146 352
         L 146 168
         C 146 148, 162 138, 180 148 Z"
      fill="#d90404"
      stroke="#ff4d4d"
      stroke-width="4"
      stroke-linejoin="round"
    />

    <!-- 5. Center 3D Pearl White Glossy Play Triangle -->
    <path
      d="M 190 165
         L 335 248
         C 348 255, 348 265, 335 272
         L 190 355
         C 176 363, 162 355, 162 338
         L 162 182
         C 162 165, 176 157, 190 165 Z"
      fill="url(#pearlWhitePlay)"
      stroke="#ffffff"
      stroke-width="3"
      stroke-linejoin="round"
    />

    <!-- Play Triangle Top Glass Specular Reflection -->
    <path
      d="M 164 182
         L 164 260
         L 280 258
         L 332 252
         C 335 250, 332 248, 328 245
         L 190 165
         C 176 157, 164 165, 164 182 Z"
      fill="url(#playGlassSheen)"
    />

    <!-- Bottom Chrome Bevel Edge of Play Button -->
    <path
      d="M 166 338
         C 166 350, 176 356, 188 350
         L 330 268"
      stroke="#94a3b8"
      stroke-width="3"
      stroke-linecap="round"
      fill="none"
    />

    <!-- Star Specular Sparkle Glints -->
    <circle cx="410" cy="290" r="3.5" fill="#ffffff" />
    <circle cx="95" cy="385" r="3" fill="#ffffff" />
    <circle cx="395" cy="145" r="2.5" fill="#ffffff" />
  </g>
</svg>